<svg width="46" height="46" viewBox="0 0 46 46" fill="none" xmlns="http://www.w3.org/2000/svg">
<path d="M23 5.75H9.58333C8.56667 5.75 7.59165 6.15387 6.87276 6.87276C6.15387 7.59165 5.75 8.56667 5.75 9.58333V36.4167C5.75 37.4333 6.15387 38.4084 6.87276 39.1272C7.59165 39.8461 8.56667 40.25 9.58333 40.25H36.4167C37.4333 40.25 38.4084 39.8461 39.1272 39.1272C39.8461 38.4084 40.25 37.4333 40.25 36.4167V23" stroke="#1D0621" stroke-linecap="round" stroke-linejoin="round"/>
<path d="M35.2187 5.03168C35.9812 4.26919 37.0154 3.84082 38.0937 3.84082C39.1721 3.84082 40.2062 4.26919 40.9687 5.03168C41.7312 5.79418 42.1596 6.82835 42.1596 7.90668C42.1596 8.98502 41.7312 10.0192 40.9687 10.7817L23 28.7504L15.3333 30.6671L17.25 23.0004L35.2187 5.03168Z" stroke="#1D0621" stroke-linecap="round" stroke-linejoin="round"/>
</svg>
