<svg width="42" height="41" viewBox="0 0 42 41" fill="none" xmlns="http://www.w3.org/2000/svg">
<path d="M33.0323 16.2163C33.0323 25.1589 25.624 32.4325 16.5175 32.4325C7.40968 32.4325 0 25.1575 0 16.2163C0 7.27504 7.40968 6.10352e-05 16.5175 6.10352e-05C25.624 6.10352e-05 33.0323 7.27504 33.0323 16.2163ZM1.19074 16.2163C1.19074 24.5144 8.06729 31.2645 16.5189 31.2645C24.9691 31.2645 31.8443 24.5144 31.8443 16.2163C31.8443 7.91816 24.9691 1.16804 16.5189 1.16804C8.06729 1.16804 1.19074 7.91816 1.19074 16.2163Z" fill="#1D0621"/>
<path d="M39.713 39.6974C39.6977 39.7588 39.6519 39.8115 39.5819 39.8484C39.5119 39.8854 39.4208 39.9049 39.3208 39.9043C39.2207 39.9037 39.1165 39.8831 39.0217 39.8452C38.927 39.8073 38.8463 39.7538 38.7904 39.692L27.8886 27.5482C27.8224 27.4682 27.802 27.3814 27.8318 27.306C27.8616 27.2305 27.9393 27.1722 28.0486 27.1431C28.1578 27.1141 28.2903 27.1167 28.4183 27.1503C28.5463 27.1838 28.6599 27.2458 28.7354 27.3233L39.637 39.4678C39.7041 39.542 39.7312 39.6237 39.713 39.6974Z" fill="#1D0621" stroke="#1D0621" stroke-width="0.5"/>
</svg>
